<?xml version="1.0" encoding="UTF-8"?>
<svg id="Layer_1" data-name="Layer 1" xmlns="http://www.w3.org/2000/svg" viewBox="0 0 440.21 533.87">
  <defs>
    <style>
      .cls-1 {
        fill: #f05224;
      }

      .cls-2 {
        fill: #093531;
      }

      .cls-3 {
        fill: #3fbfba;
      }
    </style>
  </defs>
  <path class="cls-3" d="m91.81,303.52h326.84c7.81,0,14.45-6.64,14.45-14.45s-6.61-14.45-14.45-14.45H91.81c-7.81,0-14.45,6.64-14.45,14.45s6.61,14.45,14.45,14.45h0Z"/>
  <path class="cls-2" d="m82.75,62.96c4.76,15.22,9.53,30.44,14.29,45.65,11.44,36.56,22.88,73.11,34.32,109.67,13.9,44.4,27.8,88.81,41.69,133.21,11.97,38.25,23.94,76.51,35.92,114.76,5.82,18.59,11.24,37.36,17.47,55.82.09.26.17.53.25.8,2.33,7.44,10.06,12.21,17.77,10.09s12.43-10.3,10.09-17.77c-4.76-15.22-9.53-30.44-14.29-45.65-11.44-36.56-22.88-73.11-34.32-109.67-13.9-44.4-27.8-88.81-41.69-133.21-11.97-38.25-23.94-76.51-35.92-114.76-5.82-18.59-11.24-37.36-17.47-55.82-.09-.26-.17-.53-.25-.8-2.33-7.44-10.06-12.21-17.77-10.09s-12.43,10.3-10.09,17.77h0Z"/>
  <path class="cls-1" d="m20.73,229.87c13.72-6.72,27.44-13.45,41.16-20.17l98.84-48.44c39.7-19.45,79.39-38.91,119.09-58.36,34.45-16.88,68.9-33.77,103.35-50.65,16.65-8.16,33.89-15.66,50.16-24.58.24-.13.49-.24.74-.36,7-3.43,8.92-13.38,5.18-19.76-4.18-7.15-12.73-8.63-19.76-5.18-13.72,6.72-27.44,13.45-41.16,20.17-32.95,16.15-65.89,32.29-98.84,48.44-39.7,19.45-79.39,38.91-119.09,58.36-34.45,16.88-68.9,33.77-103.35,50.65-16.65,8.16-33.89,15.66-50.16,24.58-.24.13-.49.24-.74.36-7,3.43-8.92,13.38-5.18,19.76,4.18,7.15,12.73,8.63,19.76,5.18h0Z"/>
</svg>